<?xml version="1.0" standalone="no"?><!DOCTYPE svg PUBLIC "-//W3C//DTD SVG 1.1//EN" "http://www.w3.org/Graphics/SVG/1.1/DTD/svg11.dtd"><svg t="1539351859267" class="icon" style="" viewBox="0 0 1024 1024" version="1.1" xmlns="http://www.w3.org/2000/svg" p-id="4713" xmlns:xlink="http://www.w3.org/1999/xlink" width="200" height="200"><defs><style type="text/css"></style></defs><path d="M400.620283 222.227314l208.308303 0c17.265222 0 31.152511-14.012132 31.152511-31.152511 0-17.140379-14.012132-31.152511-31.152511-31.152511L400.620283 159.922293c-17.265222 0-31.152511 14.012132-31.152511 31.152511C369.467773 208.214159 383.355061 222.227314 400.620283 222.227314z" p-id="4714" fill="#d81e06"></path><path d="M632.323413 509.949294c17.265222 0 31.152511-14.012132 31.152511-31.152511 0-17.140379-14.012132-31.152511-31.152511-31.152511l-82.697467 0 62.554708-62.554708c12.135388-12.135388 12.135388-31.903617 0-44.163849-12.135388-12.135388-31.903617-12.135388-44.163849 0l-63.055105 63.055105-63.430658-63.430658c-12.135388-12.135388-31.902594-12.135388-44.163849 0-12.135388 12.135388-12.135388 31.903617 0 44.163849l62.930261 62.930261-83.07302 0c-17.265222 0-31.152511 14.012132-31.152511 31.152511 0 17.265222 14.012132 31.152511 31.152511 31.152511l96.335069 0 0 67.154469-96.335069 0c-17.265222 0-31.152511 14.012132-31.152511 31.152511 0 17.265222 14.012132 31.152511 31.152511 31.152511l96.335069 0 0 70.216201c0 17.265222 14.012132 31.152511 31.152511 31.152511 17.265222 0 31.152511-14.012132 31.152511-31.152511l0-70.216201 96.335069 0c17.265222 0 31.152511-14.012132 31.152511-31.152511 0-17.265222-14.012132-31.152511-31.152511-31.152511l-96.335069 0 0-67.154469L632.323413 509.949294 632.323413 509.949294z" p-id="4715" fill="#d81e06"></path><path d="M830.812069 454.526007l0-81.696674c0-0.751107 0.124843-1.50119 0.124843-2.252297 0-0.87595 0-1.876744-0.124843-2.752694L830.812069 92.420923c0-32.778544-26.64894-59.552328-59.552328-59.552328L252.614391 32.868595c-32.778544 0-59.552328 26.64894-59.552328 59.552328l0 839.159178c0 32.778544 26.64894 59.552328 59.552328 59.552328l302.015521 0c17.265222 0 31.277354-14.012132 31.277354-31.277354 0-17.265222-14.012132-31.277354-31.277354-31.277354-0.62524 0-1.251503 0-1.876744 0.124843L255.491928 928.702564 255.491928 95.172593 768.507048 95.172593l0 272.65175c-0.124843 0.87595-0.124843 1.7519-0.124843 2.752694l0 558.124504-37.407981 0c-0.62524 0-1.251503-0.124843-1.876744-0.124843-17.265222 0-31.277354 14.012132-31.277354 31.277354 0 17.265222 14.012132 31.277354 31.277354 31.277354l0 0 0 0 42.162262 0c32.778544 0 59.552328-26.64894 59.552328-59.552328L830.812069 459.529975c0.124843-0.87595 0.124843-1.7519 0.124843-2.752694C830.937936 456.027198 830.937936 455.276091 830.812069 454.526007z" p-id="4716" fill="#d81e06"></path></svg>