<?xml version="1.0" standalone="no"?><!DOCTYPE svg PUBLIC "-//W3C//DTD SVG 1.1//EN" "http://www.w3.org/Graphics/SVG/1.1/DTD/svg11.dtd"><svg t="1539352134358" class="icon" style="" viewBox="0 0 1024 1024" version="1.1" xmlns="http://www.w3.org/2000/svg" p-id="8758" xmlns:xlink="http://www.w3.org/1999/xlink" width="200" height="200"><defs><style type="text/css"></style></defs><path d="M859.382 864.715H164.618c-55.905 0-101.489-45.584-101.489-101.488V260.773c0-55.904 45.584-101.488 101.489-101.488h694.764c55.905 0 101.489 45.584 101.489 101.488v502.454c0 55.904-45.584 101.488-101.489 101.488zM164.618 223.446c-20.642 0-37.5 16.686-37.5 37.327v502.454c0 20.641 16.686 37.327 37.5 37.327h694.764c20.642 0 37.5-16.686 37.5-37.327V260.773c0-20.641-16.686-37.327-37.5-37.327H164.618z m635.936 192.312H223.446c-17.717 0-31.994-14.45-31.994-31.995 0-17.717 14.449-31.994 31.994-31.994h577.28c17.717 0 31.994 14.449 31.994 31.994 0 17.718-14.449 31.995-32.166 31.995zM319.602 736.392h-96.156c-17.717 0-31.994-14.277-31.994-31.994 0-17.718 14.449-31.995 31.994-31.995h96.156c17.718 0 31.995 14.277 31.995 31.995 0 17.717-14.277 31.994-31.995 31.994z" fill="#c3b7ab" p-id="8759"></path></svg>