<?xml version="1.0" standalone="no"?><!DOCTYPE svg PUBLIC "-//W3C//DTD SVG 1.1//EN" "http://www.w3.org/Graphics/SVG/1.1/DTD/svg11.dtd"><svg t="1539351964672" class="icon" style="" viewBox="0 0 1024 1024" version="1.1" xmlns="http://www.w3.org/2000/svg" p-id="2411" xmlns:xlink="http://www.w3.org/1999/xlink" width="200" height="200"><defs><style type="text/css"></style></defs><path d="M598.574545 831.767273H205.265455a23.272727 23.272727 0 0 1-23.272728-23.272728V132.189091a23.272727 23.272727 0 0 1 23.272728-23.272727h393.30909a23.272727 23.272727 0 0 1 23.272728 23.272727v676.305454a23.272727 23.272727 0 0 1-23.272728 23.272728z m-372.363636-46.545455h346.763636V155.461818h-344.436363z" fill="#d81e06" p-id="2412"></path><path d="M760.087273 831.767273a77.730909 77.730909 0 0 1-77.730909-77.730909V458.007273H605.090909v-46.545455h102.865455a23.272727 23.272727 0 0 1 23.272727 23.272727v319.301819a31.185455 31.185455 0 0 0 61.905454 0V304.407273l-69.818181-67.956364 33.047272-33.047273L830.836364 279.272727a23.272727 23.272727 0 0 1 6.981818 16.290909v458.472728a77.730909 77.730909 0 0 1-77.730909 77.730909z" fill="#d81e06" p-id="2413"></path><path d="M184.785455 868.538182h654.42909v46.545454H184.785455zM291.84 222.487273h220.625455v46.545454H291.84z" fill="#d81e06" p-id="2414"></path></svg>