<?xml version="1.0" standalone="no"?><!DOCTYPE svg PUBLIC "-//W3C//DTD SVG 1.1//EN" "http://www.w3.org/Graphics/SVG/1.1/DTD/svg11.dtd"><svg t="1539352025264" class="icon" style="" viewBox="0 0 1024 1024" version="1.1" xmlns="http://www.w3.org/2000/svg" p-id="5163" xmlns:xlink="http://www.w3.org/1999/xlink" width="200" height="200"><defs><style type="text/css"></style></defs><path d="M935.01227 412.465053c24.206308-16.068977 24.882714-28.356838 24.882714-49.76645 0-29.048593 0-149.293211 0-149.293211 0-41.225937-33.423227-74.649164-74.649164-74.649164L138.754181 138.756227c-41.225937 0-74.649164 33.423227-74.649164 74.649164 0 0 0 137.428999 0 149.293211 0 22.299889 1.552356 37.175691 24.882714 49.76645 33.995255 15.830547 74.649164 47.815005 74.649164 99.536994 0 67.119677-42.191938 88.957031-73.180719 99.422384-21.812795 13.650905-26.351158 36.129872-26.351158 49.870828 0 11.848862 0 149.298328 0 149.298328 0 41.231053 33.423227 74.649164 74.649164 74.649164l746.491639 0c41.225937 0 74.649164-33.418111 74.649164-74.649164 0 0 0-99.526761 0-149.298328 0-27.176966-6.241145-35.792181-24.882714-49.76645-54.349839-28.018124-74.649164-52.961212-74.649164-99.531877C860.363106 465.426265 879.373065 442.250426 935.01227 412.465053zM910.128533 652.158157l0 133.557832c0 27.480888-22.280446 49.76645-49.76645 49.76645L163.636894 835.482439c-27.486004 0-49.76645-22.285562-49.76645-49.76645L113.870444 652.158157c57.857732-20.568455 99.531877-75.246775 99.531877-140.15611 0-64.914452-41.674145-119.592772-99.531877-140.15611L113.870444 238.289128c0-27.486004 22.280446-49.76645 49.76645-49.76645l696.726212 0c27.486004 0 49.76645 22.280446 49.76645 49.76645l0 133.557832c-57.853639 20.563338-99.531877 75.241658-99.531877 140.15611C810.596655 576.912405 852.275917 631.590725 910.128533 652.158157zM524.441357 686.178995l-24.882714 0c-6.872524 0-12.441357 5.573949-12.441357 12.446473l0 74.649164c0 6.867408 5.568832 12.43624 12.441357 12.43624l24.882714 0c6.872524 0 12.441357-5.568832 12.441357-12.43624l0-74.649164C536.882714 691.752944 531.313881 686.178995 524.441357 686.178995zM524.441357 536.880667l-24.882714 0c-6.872524 0-12.441357 5.573949-12.441357 12.446473l0 74.649164c0 6.867408 5.568832 12.43624 12.441357 12.43624l24.882714 0c6.872524 0 12.441357-5.568832 12.441357-12.43624l0-74.649164C536.882714 542.454616 531.313881 536.880667 524.441357 536.880667zM524.441357 387.582339l-24.882714 0c-6.872524 0-12.441357 5.573949-12.441357 12.446473l0 74.649164c0 6.867408 5.568832 12.43624 12.441357 12.43624l24.882714 0c6.872524 0 12.441357-5.568832 12.441357-12.43624l0-74.649164C536.882714 393.156288 531.313881 387.582339 524.441357 387.582339zM524.441357 238.284011l-24.882714 0c-6.872524 0-12.441357 5.573949-12.441357 12.446473l0 74.649164c0 6.867408 5.568832 12.43624 12.441357 12.43624l24.882714 0c6.872524 0 12.441357-5.568832 12.441357-12.43624l0-74.649164C536.882714 243.85796 531.313881 238.284011 524.441357 238.284011z" p-id="5164" fill="#d81e06"></path></svg>