<?xml version="1.0" standalone="no"?><!DOCTYPE svg PUBLIC "-//W3C//DTD SVG 1.1//EN" "http://www.w3.org/Graphics/SVG/1.1/DTD/svg11.dtd"><svg t="1539352070390" class="icon" style="" viewBox="0 0 1024 1024" version="1.1" xmlns="http://www.w3.org/2000/svg" p-id="6601" xmlns:xlink="http://www.w3.org/1999/xlink" width="200" height="200"><defs><style type="text/css"></style></defs><path d="M751.5 662.8c-43.5-34.9-94.2-59.7-147.9-73 93.6-36.8 160.1-128.1 160.1-234.6 0-139-113-252-252-252s-252 113-252 252c0 106.4 66.3 197.6 159.7 234.5C274.7 625.3 160.7 743 134 895.4c-2 11.4 5.7 22.3 17.1 24.3 1.2 0.2 2.5 0.3 3.7 0.3 10 0 18.9-7.2 20.7-17.4 28.6-163.5 170-282.1 336.3-282.1 78.6 0 152.4 25.9 213.6 75 9 7.3 22.3 5.9 29.5-3.2 7.1-9 5.7-22.2-3.4-29.5zM301.7 355.1c0-116 94.1-210 210-210s210 94 210 210-94.1 210-210 210-210-94-210-210zM869.3 857.9h-126c-11.6 0-21-9.4-21-21s9.4-21 21-21h126c11.6 0 21 9.4 21 21s-9.4 21-21 21z" fill="#c3b7ab" p-id="6602"></path><path d="M806.3 920.9c-11.6 0-21-9.4-21-21v-126c0-11.6 9.4-21 21-21s21 9.4 21 21v126c0 11.6-9.4 21-21 21z" fill="#c3b7ab" p-id="6603"></path></svg>