<?xml version="1.0" standalone="no"?><!DOCTYPE svg PUBLIC "-//W3C//DTD SVG 1.1//EN" "http://www.w3.org/Graphics/SVG/1.1/DTD/svg11.dtd"><svg t="1539352041392" class="icon" style="" viewBox="0 0 1024 1024" version="1.1" xmlns="http://www.w3.org/2000/svg" p-id="6276" xmlns:xlink="http://www.w3.org/1999/xlink" width="200" height="200"><defs><style type="text/css"></style></defs><path d="M752 80H272c-88 0-160 72-160 160v416c0 78.4 57.6 144 132.8 156.8L144 872c-16 9.6-20.8 28.8-11.2 43.2 9.6 16 28.8 20.8 43.2 11.2L368 816h288l193.6 112c16 9.6 35.2 3.2 43.2-11.2 9.6-16 3.2-35.2-11.2-43.2l-100.8-59.2C854.4 800 912 734.4 912 656V240c0-88-72-160-160-160z m-480 64h480c52.8 0 96 43.2 96 96v224H176V240c0-52.8 43.2-96 96-96z m480 608H272c-52.8 0-96-43.2-96-96V544h672v112c0 52.8-43.2 96-96 96z" p-id="6277" fill="#c3b7ab"></path><path d="M288 640a48 48 0 1 0 96 0 48 48 0 1 0-96 0zM640 640a48 48 0 1 0 96 0 48 48 0 1 0-96 0z" p-id="6278" fill="#c3b7ab"></path></svg>