<?xml version="1.0" standalone="no"?><!DOCTYPE svg PUBLIC "-//W3C//DTD SVG 1.1//EN" "http://www.w3.org/Graphics/SVG/1.1/DTD/svg11.dtd"><svg t="1539615048969" class="icon" style="" viewBox="0 0 1024 1024" version="1.1" xmlns="http://www.w3.org/2000/svg" p-id="6887" xmlns:xlink="http://www.w3.org/1999/xlink" width="200" height="200"><defs><style type="text/css"></style></defs><path d="M439.8 882c-25.4 0-46.1-20.7-46.1-46.1 0-25.4 20.7-46.1 46.1-46.1 25.4 0 46.1 20.7 46.1 46.1 0 25.4-20.7 46.1-46.1 46.1z m0-138.3c-50.9 0-92.2 41.4-92.2 92.2 0 50.9 41.3 92.2 92.2 92.2 50.9 0 92.2-41.4 92.2-92.2 0-50.8-41.3-92.2-92.2-92.2zM793.7 882c-25.4 0-46.1-20.7-46.1-46.1 0-25.4 20.7-46.1 46.1-46.1 25.4 0 46.1 20.7 46.1 46.1 0 25.4-20.8 46.1-46.1 46.1z m0-138.3c-50.9 0-92.2 41.4-92.2 92.2 0 50.9 41.3 92.2 92.2 92.2 50.9 0 92.2-41.4 92.2-92.2 0-50.8-41.4-92.2-92.2-92.2z m55.5-302.9c-2.4 14.6-18 29-32.8 30.3l-495.7 40.3-45.8-274.9h589.4c5.4 0 9.9 1.8 12.7 5.2 2.8 3.4 3.9 8.1 3 13.4l-30.8 185.7z m63.1-228.9c-11.6-13.6-29.1-21.5-48-21.5H267.2l-4.6-27.5c-6-36.3-39.6-64.7-76.4-64.7h-66.5c-12.7 0-23.1 10.3-23.1 23.1 0 12.7 10.3 23.1 23.1 23.1h66.5c14.2 0 28.6 12.3 30.9 26.2l77 462.3c6 36.3 39.6 64.7 76.4 64.7h493.7c12.7 0 23.1-10.3 23.1-23.1 0-12.7-10.3-23.1-23.1-23.1H370.6c-14.2 0-28.6-12.3-30.9-26.2L328.3 557l492.1-40c35.7-3.1 68.4-33.2 74.3-68.7l30.9-185.7c3.1-18.5-1.7-37-13.3-50.7z" p-id="6888" fill="#ffffff"></path></svg>