<?xml version="1.0" standalone="no"?><!DOCTYPE svg PUBLIC "-//W3C//DTD SVG 1.1//EN" "http://www.w3.org/Graphics/SVG/1.1/DTD/svg11.dtd"><svg t="1539351771464" class="icon" style="" viewBox="0 0 1237 1024" version="1.1" xmlns="http://www.w3.org/2000/svg" p-id="2393" xmlns:xlink="http://www.w3.org/1999/xlink" width="241.6015625" height="200"><defs><style type="text/css"></style></defs><path d="M467.970516 309.464373c0-20.127764-12.579853-35.223587-25.159705-35.223587h-25.159705c-15.095823 0-25.159705 15.095823-25.159706 35.223587v98.122851c0 20.127764 12.579853 35.223587 25.159706 35.223587h25.159705c15.095823 0 25.159705-15.095823 25.159705-35.223587v-98.122851z m0 256.628993c0-20.127764-12.579853-35.223587-25.159705-35.223587h-25.159705c-15.095823 0-25.159705 15.095823-25.159706 35.223587v98.12285c0 20.127764 12.579853 35.223587 25.159706 35.223587h25.159705c15.095823 0 25.159705-15.095823 25.159705-35.223587v-98.12285z m201.277641 0c0-20.127764-12.579853-35.223587-25.159705-35.223587h-25.159705c-15.095823 0-25.159705 15.095823-25.159705 35.223587v98.12285c0 20.127764 12.579853 35.223587 25.159705 35.223587h25.159705c15.095823 0 25.159705-15.095823 25.159705-35.223587v-98.12285z m0-256.628993c0-20.127764-12.579853-35.223587-25.159705-35.223587h-25.159705c-15.095823 0-25.159705 15.095823-25.159705 35.223587v98.122851c0 20.127764 12.579853 35.223587 25.159705 35.223587h25.159705c15.095823 0 25.159705-15.095823 25.159705-35.223587v-98.122851z m478.034398 644.088453h-125.798526v-427.714988c0-35.223587-15.095823-50.31941-50.31941-50.31941h-125.798526v-377.395578c0-37.739558-40.255528-75.479115-75.479115-75.479115h-503.194103c-35.223587 0-75.479115 40.255528-75.479116 75.479115v830.27027c0 12.579853-7.547912 25.159705-25.159705 25.159706h-75.479115c-30.191646 0-50.31941-5.031941-50.319411 25.159705s22.643735 22.643735 52.835381 22.643734h1051.675676c30.191646 0 52.835381 2.515971 52.835381-22.643734 0-27.675676-20.127764-25.159705-50.319411-25.159705z m-301.916462-377.395578c0-22.643735 27.675676-50.31941 50.319411-50.31941h25.159705c37.739558 0 50.31941 50.31941 50.31941 50.31941v327.076167c0 20.127764-25.159705 50.31941-50.31941 50.319411h-25.159705c-32.707617 0-50.31941-27.675676-50.319411-50.319411v-327.076167z m-603.832923-452.874693c0-35.223587 15.095823-50.31941 50.31941-50.31941h452.874693c32.707617 0 50.31941 22.643735 50.31941 50.31941v779.95086c0 22.643735-27.675676 50.31941-50.31941 50.319411h-452.874693c-25.159705 0-50.31941-25.159705-50.31941-50.319411v-779.95086z" fill="#c3b7ab" p-id="2394"></path></svg>